{
	"asset":{
		"generator":"Khronos glTF Blender I/O v5.0.21",
		"version":"2.0"
	},
	"extensionsUsed":[
		"KHR_texture_transform"
	],
	"extensionsRequired":[
		"KHR_texture_transform"
	],
	"scene":0,
	"scenes":[
		{
			"name":"Scene",
			"nodes":[
				0
			]
		}
	],
	"nodes":[
		{
			"mesh":0,
			"name":"wheel_fl",
			"rotation":[
				-0.7941145300865173,
				0.12619437277317047,
				0.17576728761196136,
				0.5679464936256409
			],
			"translation":[
				-0.9014005064964294,
				0.4763774275779724,
				-1.8269047737121582
			]
		}
	],
	"materials":[
		{
			"doubleSided":true,
			"name":"vehicle_generic_tyrewallblack.002",
			"normalTexture":{
				"index":0,
				"texCoord":1
			},
			"pbrMetallicRoughness":{
				"baseColorTexture":{
					"extensions":{
						"KHR_texture_transform":{
							"offset":[
								1,
								-1
							]
						}
					},
					"index":1
				},
				"metallicFactor":0.800000011920929,
				"roughnessFactor":0.550000011920929
			}
		}
	],
	"meshes":[
		{
			"name":"Object_16",
			"primitives":[
				{
					"attributes":{
						"POSITION":0,
						"NORMAL":1,
						"TEXCOORD_0":2,
						"TEXCOORD_1":3,
						"TEXCOORD_2":4,
						"COLOR_0":5
					},
					"indices":6,
					"material":0
				}
			]
		}
	],
	"textures":[
		{
			"sampler":0,
			"source":0
		},
		{
			"sampler":0,
			"source":1
		}
	],
	"images":[
		{
			"mimeType":"image/png",
			"name":"vehicle_generic_tyrewallblack.001_normal.png",
			"uri":"../ford_raptor/textures/vehicle_generic_tyrewallblack.001_normal.png"
		},
		{
			"mimeType":"image/png",
			"name":"vehicle_generic_tyrewallblack.002_baseColor.png",
			"uri":"../ford_raptor/textures/vehicle_generic_tyrewallblack.002_baseColor.png"
		}
	],
	"accessors":[
		{
			"bufferView":0,
			"componentType":5126,
			"count":46584,
			"max":[
				0.2308116853237152,
				0.4756680727005005,
				0.4771294891834259
			],
			"min":[
				-0.21400076150894165,
				-0.4782705307006836,
				-0.4765934944152832
			],
			"type":"VEC3"
		},
		{
			"bufferView":1,
			"componentType":5126,
			"count":46584,
			"type":"VEC3"
		},
		{
			"bufferView":2,
			"componentType":5126,
			"count":46584,
			"type":"VEC2"
		},
		{
			"bufferView":3,
			"componentType":5126,
			"count":46584,
			"type":"VEC2"
		},
		{
			"bufferView":4,
			"componentType":5126,
			"count":46584,
			"type":"VEC2"
		},
		{
			"bufferView":5,
			"componentType":5126,
			"count":46584,
			"type":"VEC3"
		},
		{
			"bufferView":6,
			"componentType":5123,
			"count":153018,
			"type":"SCALAR"
		}
	],
	"bufferViews":[
		{
			"buffer":0,
			"byteLength":559008,
			"byteOffset":0,
			"target":34962
		},
		{
			"buffer":0,
			"byteLength":559008,
			"byteOffset":559008,
			"target":34962
		},
		{
			"buffer":0,
			"byteLength":372672,
			"byteOffset":1118016,
			"target":34962
		},
		{
			"buffer":0,
			"byteLength":372672,
			"byteOffset":1490688,
			"target":34962
		},
		{
			"buffer":0,
			"byteLength":372672,
			"byteOffset":1863360,
			"target":34962
		},
		{
			"buffer":0,
			"byteLength":559008,
			"byteOffset":2236032,
			"target":34962
		},
		{
			"buffer":0,
			"byteLength":306036,
			"byteOffset":2795040,
			"target":34963
		}
	],
	"samplers":[
		{
			"magFilter":9729,
			"minFilter":9987
		}
	],
	"buffers":[
		{
			"byteLength":3101076,
			"uri":"raptor.bin"
		}
	]
}
