{
  "accessors": [
    {
      "bufferView": 2,
      "componentType": 5126,
      "count": 48864,
      "max": [
        3638531.75,
        3404919.25,
        66066.515625
      ],
      "min": [
        -3641470.75,
        -3875081.75,
        -12680.0361328125
      ],
      "type": "VEC3"
    },
    {
      "bufferView": 2,
      "byteOffset": 586368,
      "componentType": 5126,
      "count": 48864,
      "max": [
        1.0,
        1.0,
        1.0
      ],
      "min": [
        -1.0,
        -1.0,
        -1.0
      ],
      "type": "VEC3"
    },
    {
      "bufferView": 3,
      "componentType": 5126,
      "count": 48864,
      "max": [
        1.0,
        1.0,
        1.0,
        1.0
      ],
      "min": [
        -1.0,
        -1.0,
        -1.0,
        -1.0
      ],
      "type": "VEC4"
    },
    {
      "bufferView": 1,
      "componentType": 5126,
      "count": 48864,
      "max": [
        1.0006425380706787,
        1.0000324249267578
      ],
      "min": [
        3.4372322261333466e-05,
        -0.0013858526945114136
      ],
      "type": "VEC2"
    },
    {
      "bufferView": 1,
      "byteOffset": 390912,
      "componentType": 5126,
      "count": 48864,
      "max": [
        1.0006425380706787,
        1.0000324249267578
      ],
      "min": [
        3.4372322261333466e-05,
        -0.0013858526945114136
      ],
      "type": "VEC2"
    },
    {
      "bufferView": 1,
      "byteOffset": 781824,
      "componentType": 5126,
      "count": 48864,
      "max": [
        0.9981041550636292,
        0.9975563287734985
      ],
      "min": [
        0.00390625,
        0.00390625
      ],
      "type": "VEC2"
    },
    {
      "bufferView": 0,
      "componentType": 5125,
      "count": 101859,
      "type": "SCALAR"
    }
  ],
  "asset": {
    "extras": {
      "author": "AqibGulzar_41 (https://sketchfab.com/aqibgulzar_41)",
      "license": "CC-BY-4.0 (http://creativecommons.org/licenses/by/4.0/)",
      "source": "https://sketchfab.com/3d-models/city-base-road-03212f3a69824742ad783eada8fab716",
      "title": "City_Base_Road"
    },
    "generator": "Sketchfab-16.0.0",
    "version": "2.0"
  },
  "bufferViews": [
    {
      "buffer": 0,
      "byteLength": 407436,
      "name": "floatBufferViews",
      "target": 34963
    },
    {
      "buffer": 0,
      "byteLength": 1172736,
      "byteOffset": 407436,
      "byteStride": 8,
      "name": "floatBufferViews",
      "target": 34962
    },
    {
      "buffer": 0,
      "byteLength": 1172736,
      "byteOffset": 1580172,
      "byteStride": 12,
      "name": "floatBufferViews",
      "target": 34962
    },
    {
      "buffer": 0,
      "byteLength": 781824,
      "byteOffset": 2752908,
      "byteStride": 16,
      "name": "floatBufferViews",
      "target": 34962
    }
  ],
  "buffers": [
    {
      "byteLength": 3534732,
      "uri": "scene.bin"
    }
  ],
  "extensionsUsed": [
    "KHR_materials_specular"
  ],
  "images": [
    {
      "uri": "textures/Roads_01_baseColor.png"
    },
    {
      "uri": "textures/Roads_01_normal.png"
    }
  ],
  "materials": [
    {
      "doubleSided": true,
      "extensions": {
        "KHR_materials_specular": {
          "specularColorFactor": [
            1.0,
            1.0,
            1.0
          ],
          "specularFactor": 0.0
        }
      },
      "name": "Roads_01",
      "normalTexture": {
        "index": 1,
        "texCoord": 1
      },
      "pbrMetallicRoughness": {
        "baseColorTexture": {
          "index": 0
        },
        "metallicFactor": 0.5104777462178932,
        "roughnessFactor": 0.678475210591118
      }
    }
  ],
  "meshes": [
    {
      "name": "Double_Block_10_B_Roads_01_0",
      "primitives": [
        {
          "attributes": {
            "NORMAL": 1,
            "POSITION": 0,
            "TANGENT": 2,
            "TEXCOORD_0": 3,
            "TEXCOORD_1": 4,
            "TEXCOORD_2": 5
          },
          "indices": 6,
          "material": 0,
          "mode": 4
        }
      ]
    }
  ],
  "nodes": [
    {
      "children": [
        1
      ],
      "matrix": [
        1.0,
        0.0,
        0.0,
        0.0,
        0.0,
        2.220446049250313e-16,
        -1.0,
        0.0,
        0.0,
        1.0,
        2.220446049250313e-16,
        0.0,
        0.0,
        0.0,
        0.0,
        1.0
      ],
      "name": "Sketchfab_model"
    },
    {
      "children": [
        2
      ],
      "matrix": [
        0.009999999776482582,
        0.0,
        0.0,
        0.0,
        0.0,
        0.0,
        0.009999999776482582,
        0.0,
        0.0,
        -0.009999999776482582,
        0.0,
        0.0,
        0.0,
        0.0,
        0.0,
        1.0
      ],
      "name": "CityBase.fbx"
    },
    {
      "children": [
        3
      ],
      "name": "RootNode"
    },
    {
      "children": [
        4
      ],
      "matrix": [
        0.009999999776482582,
        0.0,
        0.0,
        0.0,
        0.0,
        -1.6292067575027046e-09,
        0.00999999977648245,
        0.0,
        0.0,
        -0.00999999977648245,
        -1.6292067575027046e-09,
        0.0,
        14.69237995147705,
        8.200949668884277,
        17350.8125,
        1.0
      ],
      "name": "Double_Block_10_B"
    },
    {
      "mesh": 0,
      "name": "Double_Block_10_B_Roads_01_0"
    }
  ],
  "samplers": [
    {
      "magFilter": 9729,
      "minFilter": 9987,
      "wrapS": 10497,
      "wrapT": 10497
    }
  ],
  "scene": 0,
  "scenes": [
    {
      "name": "Sketchfab_Scene",
      "nodes": [
        0
      ]
    }
  ],
  "textures": [
    {
      "sampler": 0,
      "source": 0
    },
    {
      "sampler": 0,
      "source": 1
    }
  ]
}
